<?xml version="1.0" standalone="no"?>
<!DOCTYPE svg PUBLIC "-//W3C//DTD SVG 20010904//EN"
 "http://www.w3.org/TR/2001/REC-SVG-20010904/DTD/svg10.dtd">
<svg version="1.0" xmlns="http://www.w3.org/2000/svg"
 width="1024.000000pt" height="1024.000000pt" viewBox="0 0 1024.000000 1024.000000"
 preserveAspectRatio="xMidYMid meet">

<g transform="translate(0.000000,1024.000000) scale(0.100000,-0.100000)"
fill="#000000" stroke="none">
<path d="M5010 9021 c-52 -17 -185 -62 -295 -101 -110 -40 -382 -133 -605
-207 -223 -74 -506 -174 -630 -220 -124 -47 -326 -119 -450 -160 -124 -41
-240 -82 -258 -90 -40 -19 -62 -59 -62 -111 0 -65 28 -83 203 -132 83 -24 184
-54 222 -67 39 -14 167 -58 285 -98 313 -106 412 -146 407 -166 -3 -9 -1 -140
3 -290 8 -302 13 -331 77 -394 31 -32 162 -93 326 -152 53 -20 97 -39 97 -44
0 -4 -55 -45 -122 -90 -236 -158 -361 -269 -473 -417 -264 -351 -382 -783
-334 -1220 54 -499 283 -907 671 -1197 58 -44 142 -102 187 -129 184 -111 488
-214 702 -237 131 -14 419 -6 514 15 351 78 694 263 923 497 125 129 282 366
360 544 42 97 96 280 118 400 28 154 26 453 -4 602 -45 226 -94 357 -201 538
-149 252 -337 448 -594 619 -55 36 -85 62 -79 68 5 5 86 40 180 78 218 88 241
100 285 149 61 68 68 108 67 416 l-1 270 28 12 c117 52 795 286 962 332 67 19
70 19 164 0 147 -29 214 -63 311 -156 110 -107 163 -222 172 -376 l6 -102 -45
-18 c-59 -24 -128 -78 -163 -128 -15 -22 -29 -37 -32 -34 -3 3 -8 114 -11 246
l-6 241 -28 24 c-55 47 -170 23 -402 -85 -281 -132 -490 -377 -593 -696 -43
-132 -56 -223 -56 -385 0 -236 52 -421 169 -601 61 -95 128 -171 191 -219 l51
-39 2 -73 c2 -72 1 -74 -34 -107 -56 -53 -68 -85 -77 -206 -11 -159 -26 -888
-27 -1326 -1 -348 0 -382 19 -441 25 -82 67 -144 143 -214 83 -76 147 -105
248 -111 200 -14 370 99 430 286 19 59 22 95 26 354 l4 288 32 33 c55 55 142
286 201 536 76 316 87 756 30 1150 -32 224 -113 490 -172 571 l-28 38 -13
-132 c-15 -155 -11 -337 13 -497 39 -268 37 -744 -4 -983 -21 -123 -63 -284
-79 -300 -12 -12 -19 114 -28 528 -8 381 -5 1494 4 1563 3 24 12 46 19 49 8 3
47 -16 88 -41 41 -26 95 -56 120 -67 106 -46 262 -11 374 86 80 69 107 162
100 347 -3 99 -7 119 -31 166 -45 86 -126 152 -228 185 -13 4 -17 27 -22 119
-14 278 -143 501 -367 632 -65 38 -225 108 -285 125 -51 14 -134 14 -189 0
-39 -10 -48 -8 -102 19 -33 16 -140 57 -239 91 -99 34 -211 74 -250 88 -38 14
-126 45 -195 68 -212 73 -732 252 -1005 347 -427 148 -464 159 -545 164 -63 3
-90 0 -170 -25z m123 -227 c53 -3 90 -11 107 -21 14 -10 95 -40 180 -69 85
-28 180 -61 210 -74 63 -26 447 -160 565 -197 44 -14 152 -54 240 -88 88 -35
201 -76 250 -90 50 -15 120 -43 156 -61 37 -19 71 -34 78 -34 21 0 11 -18 -16
-28 -16 -6 -80 -34 -143 -62 -63 -28 -135 -60 -160 -70 -25 -10 -74 -31 -110
-47 -36 -16 -91 -40 -123 -53 -31 -12 -60 -27 -64 -33 -4 -7 0 -8 13 -3 10 4
35 10 54 12 33 4 34 4 10 -7 -55 -26 -90 -39 -215 -84 -71 -26 -152 -55 -180
-65 -27 -10 -75 -28 -105 -39 -155 -56 -289 -105 -320 -116 -19 -7 -73 -25
-120 -40 -47 -14 -98 -32 -115 -40 -60 -26 -142 -37 -198 -26 -75 16 -181 48
-267 81 -218 84 -566 209 -760 272 -58 19 -181 65 -275 103 -225 89 -218 86
-170 82 22 -2 49 -7 60 -11 11 -4 4 1 -15 10 -163 79 -196 94 -203 94 -13 0
-97 60 -97 69 0 9 221 120 303 153 46 18 267 93 632 214 61 20 157 54 215 75
58 21 137 48 175 60 155 47 276 92 265 99 -7 4 -12 11 -13 15 -2 11 55 35 66
28 4 -2 45 -7 90 -9z m-573 -148 c0 -7 -112 -47 -117 -43 -2 2 20 13 49 25 57
21 68 24 68 18z m-1253 -462 c-3 -3 -12 -4 -19 -1 -8 3 -5 6 6 6 11 1 17 -2
13 -5z m53 -4 c0 -5 -4 -10 -10 -10 -5 0 -10 5 -10 10 0 6 5 10 10 10 6 0 10
-4 10 -10z m3810 -40 c0 -5 -2 -10 -4 -10 -3 0 -8 5 -11 10 -3 6 -1 10 4 10 6
0 11 -4 11 -10z m-3605 -115 c39 -17 11 -18 -35 0 -23 9 -28 14 -15 14 11 0
34 -6 50 -14z m4150 -701 c4 -103 4 -510 0 -905 l-8 -719 -21 0 c-33 1 -177
53 -229 83 -115 67 -267 241 -330 377 -53 114 -76 212 -83 350 -8 148 6 260
50 396 91 280 290 499 536 590 80 29 76 37 85 -172z m-3526 57 c31 -15 112
-52 181 -80 69 -29 179 -78 245 -108 144 -67 443 -170 519 -179 46 -6 75 0
193 35 151 45 158 47 582 215 162 64 301 116 308 116 11 0 13 -18 11 -82 l-3
-83 -62 -40 c-34 -22 -89 -57 -122 -78 -33 -22 -63 -48 -66 -58 -5 -14 -13
-18 -32 -15 -13 3 -32 1 -41 -4 -24 -13 -179 -57 -227 -64 -22 -3 -116 -18
-210 -33 -141 -23 -201 -27 -352 -27 -100 0 -180 -3 -177 -8 3 -4 10 -8 16 -8
5 0 21 -9 35 -20 l26 -20 -36 0 c-135 0 -521 124 -824 265 l-103 48 1 41 1 41
9 -31 c9 -31 42 -53 92 -60 12 -2 33 -6 47 -10 14 -3 -2 11 -36 34 -34 23 -64
48 -68 57 -3 9 -6 55 -6 101 0 79 1 84 21 84 12 0 47 -13 78 -29z m2111 -181
c0 -27 -3 -50 -7 -50 -5 0 -6 22 -5 50 5 65 12 65 12 0z m2007 9 c24 -12 42
-24 41 -28 -32 -61 -32 -59 -13 -129 22 -86 30 -162 16 -162 -5 0 -22 -12 -37
-26 -15 -16 -19 -24 -9 -21 12 5 19 -1 26 -22 7 -20 15 -28 25 -24 8 3 13 12
10 20 -3 8 -2 12 2 9 20 -12 33 16 38 80 8 91 14 94 14 6 0 -65 -2 -74 -27
-97 -16 -14 -52 -33 -81 -41 -50 -15 -58 -15 -97 1 -24 9 -58 32 -75 51 l-30
35 0 134 c0 129 1 134 26 165 27 31 87 69 113 70 8 0 34 -10 58 -21z m-2051
-68 c-8 -12 -125 -76 -153 -83 -13 -4 -23 -3 -23 2 0 4 13 10 29 13 16 3 36
13 44 22 9 8 23 15 31 15 9 0 16 3 16 8 0 4 10 12 23 18 29 15 40 16 33 5z
m-239 -117 c-3 -3 -12 -4 -19 -1 -8 3 -5 6 6 6 11 1 17 -2 13 -5z m-45 -25
c-11 -11 -84 -29 -94 -23 -16 10 1 21 26 17 13 -3 27 0 30 5 4 6 15 10 26 9
11 -1 16 -4 12 -8z m-112 -19 c0 -5 -7 -10 -15 -10 -8 0 -15 5 -15 10 0 6 7
10 15 10 8 0 15 -4 15 -10z m-114 -71 c-33 -10 -61 -17 -63 -15 -6 5 78 33
102 34 11 0 -7 -8 -39 -19z m-663 -76 c-13 -2 -33 -2 -45 0 -13 2 -3 4 22 4
25 0 35 -2 23 -4z m280 0 c-13 -2 -35 -2 -50 0 -16 2 -5 4 22 4 28 0 40 -2 28
-4z m387 -148 c7 -9 61 -44 119 -79 269 -163 477 -366 623 -608 97 -161 154
-333 189 -576 17 -123 7 -416 -19 -512 -61 -227 -165 -452 -281 -604 -62 -82
-222 -247 -296 -306 -231 -184 -614 -320 -897 -320 -193 0 -338 27 -558 105
-217 77 -318 135 -497 288 -153 130 -280 293 -370 472 -112 223 -152 385 -160
655 -6 221 11 348 76 550 72 224 228 462 411 626 94 85 290 213 380 248 25 10
65 29 89 43 l44 25 86 -25 c156 -46 270 -61 471 -61 128 0 220 5 298 18 104
16 216 46 252 67 21 12 26 11 40 -6z m1960 -1295 l0 -80 -175 0 -175 0 0 65
c0 90 10 94 203 95 l147 0 0 -80z m16 -634 c5 -193 9 -509 9 -703 -1 -303 -3
-354 -16 -370 -33 -38 -33 -45 0 -29 18 10 32 12 32 6 1 -5 2 -16 3 -22 4 -24
-22 -99 -46 -134 -43 -64 -161 -93 -231 -58 -45 23 -60 36 -49 43 6 3 4 12 -4
19 -9 8 -14 9 -14 2 0 -6 -5 -8 -10 -5 -6 4 -8 11 -4 16 3 5 0 8 -8 7 -7 -2
-22 15 -33 37 -19 39 -20 61 -23 784 -2 495 1 747 8 751 5 3 92 6 193 6 l184
1 9 -351z"/>
<path d="M5103 8381 c-35 -9 -50 -18 -101 -65 -54 -50 -76 -101 -76 -176 1
-143 104 -250 239 -250 179 0 316 188 244 337 -50 103 -202 180 -306 154z
m131 -210 c14 -16 14 -21 -7 -62 -17 -34 -28 -45 -49 -47 -37 -4 -78 36 -78
78 0 16 1 30 3 30 1 0 20 6 41 14 44 15 68 12 90 -13z"/>
<path d="M5340 7538 c-109 -36 -109 -36 -90 -48 20 -13 39 -12 20 1 -11 7 -6
9 20 7 19 -1 42 2 50 7 8 6 39 22 70 37 74 35 46 34 -70 -4z"/>
<path d="M7608 5803 c6 -2 18 -2 25 0 6 3 1 5 -13 5 -14 0 -19 -2 -12 -5z"/>
<path d="M5638 6543 c7 -3 16 -2 19 1 4 3 -2 6 -13 5 -11 0 -14 -3 -6 -6z"/>
<path d="M4968 6413 c12 -2 30 -2 40 0 9 3 -1 5 -23 4 -22 0 -30 -2 -17 -4z"/>
<path d="M5007 6265 c-115 -16 -140 -23 -271 -77 -177 -74 -339 -210 -450
-378 -108 -163 -162 -317 -173 -488 -20 -350 130 -667 419 -884 122 -92 371
-189 528 -207 387 -43 838 216 1010 582 66 140 89 215 102 334 46 400 -171
803 -543 1007 -189 104 -405 142 -622 111z m303 -222 c150 -36 322 -128 419
-223 161 -158 238 -365 229 -614 -4 -103 -10 -135 -37 -216 -44 -130 -99 -218
-195 -314 -238 -238 -517 -302 -860 -196 -73 23 -206 109 -284 184 -104 100
-193 248 -234 393 -18 62 -22 103 -22 203 0 167 33 289 112 418 178 295 536
445 872 365z"/>
<path d="M5505 5920 c10 -11 20 -20 23 -20 3 0 -3 9 -13 20 -10 11 -20 20 -23
20 -3 0 3 -9 13 -20z"/>
<path d="M6500 4659 c-7 -11 -10 -23 -7 -25 2 -2 9 7 15 21 14 30 7 33 -8 4z"/>
<path d="M3920 4491 c0 -5 5 -13 10 -16 6 -3 10 -2 10 4 0 5 -4 13 -10 16 -5
3 -10 2 -10 -4z"/>
<path d="M3950 4456 c0 -2 8 -10 18 -17 15 -13 16 -12 3 4 -13 16 -21 21 -21
13z"/>
<path d="M4010 4386 c0 -2 8 -10 18 -17 15 -13 16 -12 3 4 -13 16 -21 21 -21
13z"/>
<path d="M4265 4152 c11 -13 29 -28 40 -34 21 -11 18 -8 -30 32 -29 24 -29 24
-10 2z"/>
<path d="M6019 4143 c-13 -16 -12 -17 4 -4 16 13 21 21 13 21 -2 0 -10 -8 -17
-17z"/>
<path d="M7390 3631 c0 -6 5 -11 11 -11 6 0 9 -9 6 -20 -3 -11 -1 -20 4 -20
15 0 10 36 -6 50 -10 9 -15 9 -15 1z"/>
<path d="M7380 3561 c0 -5 5 -13 10 -16 6 -3 10 -2 10 4 0 5 -4 13 -10 16 -5
3 -10 2 -10 -4z"/>
<path d="M3067 7789 c7 -7 15 -10 18 -7 3 3 -2 9 -12 12 -14 6 -15 5 -6 -5z"/>
<path d="M3248 7713 c-50 -37 -60 -53 -30 -53 38 0 123 -62 173 -125 51 -65
51 -65 102 -65 28 0 76 -7 108 -16 l56 -16 -4 -46 c-2 -26 -8 -86 -15 -134
-12 -97 -19 -104 -82 -84 l-36 11 0 70 c-1 38 -6 80 -13 93 -15 26 -15 55 6
-463 6 -170 12 -374 12 -452 0 -77 4 -145 8 -149 4 -5 5 -2 2 7 -3 8 1 34 10
58 18 52 19 65 4 55 -8 -5 -8 -1 0 14 6 11 11 29 10 39 0 16 -1 16 -9 -2 -9
-22 -6 193 5 392 6 101 10 125 26 139 12 11 19 30 19 56 0 43 16 51 26 13 3
-14 10 -25 14 -25 4 0 11 -17 14 -37 22 -119 51 -197 102 -275 30 -44 51 -84
48 -89 -3 -5 -2 -9 3 -8 20 3 25 -2 13 -16 -28 -34 8 -10 111 72 l109 87 -38
12 c-64 19 -160 72 -198 111 -20 20 -51 66 -68 102 l-31 66 -3 267 -4 266 -26
7 c-15 3 -49 17 -77 30 -27 13 -88 40 -134 60 -46 20 -93 42 -105 50 -31 22
-56 17 -108 -22z"/>
<path d="M6965 7722 c-16 -10 -64 -31 -105 -46 -41 -16 -81 -34 -89 -40 -7 -6
-34 -18 -60 -27 l-46 -16 -5 -259 -5 -260 -34 -69 c-46 -92 -118 -162 -222
-214 -45 -23 -90 -41 -100 -41 -11 0 -19 -4 -19 -10 0 -5 4 -10 9 -10 5 0 45
-31 88 -68 87 -75 117 -97 95 -70 -12 15 -9 20 25 41 84 53 136 130 164 243 7
25 15 41 19 34 14 -23 45 42 41 88 -2 34 2 49 19 68 13 13 28 21 34 18 6 -3 2
2 -8 10 -11 9 -17 19 -13 22 4 4 13 2 21 -5 11 -9 14 -9 13 1 -1 41 4 58 21
59 9 0 12 3 6 5 -14 6 11 64 27 64 6 0 9 6 8 13 -3 16 22 67 33 67 5 0 6 5 2
12 -5 7 -2 9 8 5 10 -3 20 4 29 21 7 15 12 30 11 35 -1 4 2 6 7 5 10 -3 38 27
92 99 22 29 64 71 94 94 30 23 55 45 55 49 0 14 -140 100 -162 100 -13 0 -36
-8 -53 -18z m-68 -254 c36 -13 44 -28 14 -28 -11 0 -23 -4 -26 -10 -3 -5 -15
-10 -25 -10 -16 0 -18 -5 -13 -30 5 -30 5 -30 -41 -30 -35 0 -46 4 -46 16 0
11 6 14 20 9 14 -5 20 -2 20 9 0 9 -6 16 -12 16 -10 0 -9 3 1 9 7 5 10 14 7
20 -5 7 6 17 26 26 41 18 35 17 75 3z"/>
<path d="M2667 7560 c-39 -12 -95 -56 -116 -91 l-18 -29 -27 40 c-50 75 -161
103 -245 61 -48 -25 -108 -91 -134 -150 -20 -45 -21 -63 -21 -581 -1 -529 -1
-536 22 -620 45 -165 133 -291 257 -370 l65 -40 0 -54 c0 -29 3 -74 6 -99 6
-42 4 -47 -35 -89 -54 -60 -70 -102 -72 -190 -1 -40 -8 -106 -15 -146 -10 -50
-14 -151 -14 -312 0 -288 -10 -319 -44 -130 -50 279 -58 580 -22 839 l16 113
-53 52 c-29 29 -66 73 -83 98 l-31 47 -12 -37 c-6 -20 -21 -109 -33 -197 -32
-237 -32 -611 0 -818 34 -215 127 -527 193 -645 l30 -53 0 -237 c0 -272 11
-351 61 -445 89 -167 252 -258 441 -244 127 9 279 113 340 233 60 118 61 129
53 584 -4 228 -11 462 -16 520 -5 58 -14 272 -19 475 -6 204 -15 387 -21 407
-6 21 -26 58 -45 83 -34 44 -35 47 -35 143 l0 97 76 59 c116 91 191 207 240
373 l26 88 -7 350 c-3 193 -10 438 -13 545 -7 187 -8 197 -34 240 -52 88 -118
130 -206 130 -63 0 -139 -38 -171 -85 l-24 -36 -28 42 c-15 23 -41 51 -58 61
-35 22 -131 32 -174 18z m-268 -195 c16 -8 31 -22 35 -30 3 -9 6 -205 6 -436
0 -448 2 -463 49 -489 26 -13 74 -13 105 2 57 25 57 22 60 490 l3 432 29 23
c35 28 64 29 95 4 l24 -19 3 -438 c3 -437 3 -439 25 -463 12 -13 37 -30 54
-37 28 -12 38 -12 65 -1 18 8 42 24 53 37 19 22 20 34 16 454 l-4 432 32 27
c38 32 71 34 96 7 16 -17 18 -49 21 -322 2 -167 6 -388 9 -493 7 -209 -3 -290
-48 -389 -51 -112 -167 -207 -274 -226 -66 -12 -167 -10 -228 4 -97 22 -228
124 -269 209 -57 116 -58 132 -52 689 4 463 6 512 22 529 21 23 36 24 73 4z
m411 -1671 c0 -12 -53 -24 -107 -24 -25 0 -33 4 -33 18 0 16 9 18 70 18 44 -1
70 -5 70 -12z m57 -256 c12 -12 39 -126 31 -133 -2 -1 -76 -5 -165 -9 l-162
-7 -7 48 c-9 59 9 93 56 111 45 16 228 8 247 -10z m57 -435 c3 -54 10 -300 16
-548 5 -247 12 -536 14 -641 5 -185 4 -192 -19 -240 -32 -66 -52 -87 -113
-118 -58 -29 -106 -33 -157 -12 -88 37 -135 104 -149 208 l-6 48 49 -50 c27
-27 51 -47 54 -44 3 4 -16 28 -43 54 -40 39 -50 55 -56 96 -4 26 -3 242 2 478
4 237 9 517 9 621 1 105 2 200 3 213 2 20 7 22 66 22 36 0 68 -5 71 -10 4 -6
12 -7 18 -3 7 5 57 11 112 14 55 3 105 6 111 7 8 1 14 -32 18 -95z"/>
<path d="M2773 5983 c9 -2 25 -2 35 0 9 3 1 5 -18 5 -19 0 -27 -2 -17 -5z"/>
<path d="M2899 3664 c-21 -23 -22 -26 -5 -23 10 2 22 14 27 27 11 28 8 28 -22
-4z"/>
<path d="M6712 6820 c0 -14 2 -19 5 -12 2 6 2 18 0 25 -3 6 -5 1 -5 -13z"/>
<path d="M6697 6738 c-4 -29 -9 -90 -13 -135 -4 -52 -11 -81 -18 -80 -7 1 -11
-23 -12 -70 0 -60 3 -77 22 -100 12 -15 24 -26 26 -23 3 3 1 55 -4 115 -4 68
-3 153 3 223 11 112 7 171 -4 70z"/>
<path d="M3754 6538 l-29 -33 33 29 c30 28 37 36 29 36 -2 0 -16 -15 -33 -32z"/>
<path d="M3686 6463 c-6 -14 -5 -15 5 -6 7 7 10 15 7 18 -3 3 -9 -2 -12 -12z"/>
<path d="M6631 6414 c0 -11 3 -14 6 -6 3 7 2 16 -1 19 -3 4 -6 -2 -5 -13z"/>
<path d="M3629 6393 c-13 -16 -12 -17 4 -4 9 7 17 15 17 17 0 8 -8 3 -21 -13z"/>
<path d="M3605 6359 c-4 -6 -5 -12 -2 -15 2 -3 7 2 10 11 7 17 1 20 -8 4z"/>
<path d="M3576 6313 c-6 -14 -5 -15 5 -6 7 7 10 15 7 18 -3 3 -9 -2 -12 -12z"/>
<path d="M3505 6199 c-4 -6 -5 -12 -2 -15 2 -3 7 2 10 11 7 17 1 20 -8 4z"/>
<path d="M3335 5843 c-10 -15 -45 -55 -79 -88 -62 -60 -42 -50 27 14 20 19 37
31 37 26 0 -6 -7 -50 -16 -98 -8 -49 -13 -94 -12 -99 2 -6 12 34 22 88 11 55
25 117 33 138 16 48 12 56 -12 19z"/>
<path d="M6950 5805 c-1 -11 59 -299 67 -325 4 -13 73 148 73 170 0 5 -12 21
-28 37 -15 15 -46 51 -70 78 -23 28 -42 46 -42 40z"/>
<path d="M3181 5645 c8 -42 34 -105 44 -105 5 0 -5 31 -16 45 -4 6 -10 31 -14
58 -4 26 -11 47 -15 47 -4 0 -4 -20 1 -45z"/>
<path d="M6935 4650 c-9 -28 -15 -54 -12 -57 3 -3 13 19 21 48 21 68 13 76 -9
9z"/>
<path d="M3301 4614 c0 -11 3 -14 6 -6 3 7 2 16 -1 19 -3 4 -6 -2 -5 -13z"/>
<path d="M3370 4563 c0 -18 20 -66 25 -61 3 3 -1 20 -9 39 -9 19 -15 29 -16
22z"/>
<path d="M3400 4481 c0 -6 4 -13 10 -16 6 -3 7 1 4 9 -7 18 -14 21 -14 7z"/>
<path d="M3440 4405 c0 -5 5 -17 10 -25 5 -8 10 -10 10 -5 0 6 -5 17 -10 25
-5 8 -10 11 -10 5z"/>
<path d="M3660 4056 c0 -2 8 -10 18 -17 15 -13 16 -12 3 4 -13 16 -21 21 -21
13z"/>
<path d="M6549 3953 c-13 -16 -12 -17 4 -4 16 13 21 21 13 21 -2 0 -10 -8 -17
-17z"/>
<path d="M6455 3860 c-16 -17 -16 -20 -3 -15 9 4 19 13 22 21 7 19 2 18 -19
-6z"/>
<path d="M3930 3785 c13 -14 26 -25 28 -25 3 0 -5 11 -18 25 -13 14 -26 25
-28 25 -3 0 5 -11 18 -25z"/>
<path d="M3970 3757 c0 -3 17 -17 37 -33 20 -15 33 -23 29 -16 -8 13 -66 56
-66 49z"/>
<path d="M3850 3676 c0 -2 8 -10 18 -17 15 -13 16 -12 3 4 -13 16 -21 21 -21
13z"/>
<path d="M6993 3470 c3 -19 14 -51 25 -70 40 -69 39 -72 -39 -135 -238 -192
-612 -382 -974 -495 -132 -42 -397 -101 -510 -115 -139 -17 -495 -20 -630 -5
-132 15 -420 76 -548 116 -378 118 -717 292 -999 514 l-76 60 -77 -73 -76 -73
43 -38 c52 -45 351 -244 463 -308 157 -90 394 -191 603 -257 849 -270 1609
-198 2477 237 195 97 525 325 525 363 0 5 -26 38 -59 73 -32 36 -79 105 -105
153 -39 74 -46 82 -43 53z"/>
<path d="M3297 3466 c-3 -8 2 -16 14 -19 16 -4 17 -2 8 14 -12 23 -15 23 -22
5z"/>
<path d="M5825 3460 c-3 -6 1 -7 9 -4 18 7 21 14 7 14 -6 0 -13 -4 -16 -10z"/>
<path d="M3276 3424 c-9 -24 -2 -26 12 -4 7 11 8 20 3 20 -5 0 -12 -7 -15 -16z"/>
<path d="M5678 3403 c7 -3 16 -2 19 1 4 3 -2 6 -13 5 -11 0 -14 -3 -6 -6z"/>
<path d="M5610 3390 c-8 -5 -25 -10 -37 -10 -13 0 -23 -4 -23 -10 0 -9 86 12
98 24 9 10 -22 6 -38 -4z"/>
<path d="M4735 3375 c28 -8 64 -14 80 -14 20 1 10 6 -30 15 -78 17 -114 17
-50 -1z"/>
<path d="M5508 3363 c7 -3 16 -2 19 1 4 3 -2 6 -13 5 -11 0 -14 -3 -6 -6z"/>
<path d="M5370 3349 c-30 -5 -117 -10 -193 -11 -134 -2 -164 -15 -42 -18 51
-1 124 -17 88 -19 -19 -1 -16 -21 3 -21 12 0 15 -9 12 -42 l-3 -42 40 -4 c22
-2 63 -1 92 3 52 6 53 7 53 39 0 18 9 41 20 54 27 28 25 32 -12 33 l-33 1 30
7 c17 4 40 13 50 19 18 10 16 11 -15 10 -19 0 -60 -4 -90 -9z"/>
<path d="M3575 1766 c-27 -12 -28 -14 -11 -21 11 -5 27 -3 37 3 10 7 29 12 41
12 19 0 20 2 8 10 -20 13 -39 12 -75 -4z"/>
<path d="M6177 1752 c-10 -10 -17 -23 -17 -28 0 -4 7 1 15 13 12 17 28 23 73
26 l57 3 -56 2 c-43 2 -60 -2 -72 -16z"/>
<path d="M6579 1749 c-23 -23 -18 -39 6 -19 10 8 15 9 15 1 0 -21 47 -12 53
10 5 19 11 21 53 16 29 -3 41 -1 33 4 -8 5 -42 9 -76 9 -51 0 -67 -4 -84 -21z"/>
<path d="M5640 1735 c-7 -9 -11 -17 -9 -20 3 -2 10 5 17 15 14 24 10 26 -8 5z"/>
<path d="M6570 1627 c0 -17 36 -37 63 -36 l32 1 -32 8 c-18 4 -40 13 -48 20
-8 7 -15 10 -15 7z"/>
<path d="M4905 1590 c10 -11 20 -20 23 -20 3 0 -3 9 -13 20 -10 11 -20 20 -23
20 -3 0 3 -9 13 -20z"/>
</g>
</svg>
